<svg width="218" height="165" viewBox="0 0 218 165" fill="none" xmlns="http://www.w3.org/2000/svg">
  <path d="M145.608 108.743C145.608 108.372 145.91 108.07 146.282 108.07H187.355C187.727 108.07 188.028 108.372 188.028 108.743V110.763H145.608V108.743Z" fill="#20315F"/>
  <rect x="146.282" y="110.763" width="39.7267" height="2.69333" rx="0.673333" fill="#232056"/>
  <path d="M145.784 110.689H151.893L143.397 157.387H141.637L145.784 110.689Z" fill="#20315F"/>
  <path d="M151.894 110.689H147.538L144.647 150.519L151.894 110.689Z" fill="#232056"/>
  <path d="M187.68 110.689H181.57L190.067 157.387H191.826L187.68 110.689Z" fill="#20315F"/>
  <path d="M187.68 110.689L191.826 157.387L183.651 110.689H187.68Z" fill="#232056"/>
  <path d="M79.4315 73.8455C76.376 79.493 69.4372 92.8328 66.1255 101.012" stroke="#D55C04" stroke-width="0.673333"/>
  <path d="M72.0393 67.9319L63.723 95.6528" stroke="#D55C04" stroke-width="0.673333"/>
  <path d="M67.6047 64.6053L62.4302 87.8908" stroke="#D55C04" stroke-width="0.673333"/>
  <path d="M63.5384 60.9092L59.6575 84.5643" stroke="#D55C04" stroke-width="0.673333"/>
  <path d="M58.9184 57.3979L56.1464 77.5417" stroke="#D55C04" stroke-width="0.673333"/>
  <path d="M53.1894 54.6258L51.3413 75.8784" stroke="#D55C04" stroke-width="0.673333"/>
  <path d="M48.743 52.4344L48.053 81.9901" stroke="#D55C04" stroke-width="0.673333"/>
  <path d="M41.8428 48.7543L49.778 87.8552" stroke="#D55C04" stroke-width="0.673333"/>
  <path d="M38.2118 47.4701L45.7529 87.8552" stroke="#D55C04" stroke-width="0.673333"/>
  <path d="M33.5626 45.4193L44.3729 87.8553" stroke="#D55C04" stroke-width="0.673333"/>
  <path d="M29.4226 44.9592L40.5779 84.2901" stroke="#D55C04" stroke-width="0.673333"/>
  <path d="M24.5924 44.3842C27.8125 61.1745 37.5877 82.22 37.5877 82.22" stroke="#D55C04" stroke-width="0.673333"/>
  <path d="M19.1873 45.3042C24.9374 63.5896 33.1026 77.85 33.1026 77.85" stroke="#D55C04" stroke-width="0.673333"/>
  <path d="M16.4967 46.881C22.4725 64.3035 27.8125 71.9849 27.8125 71.9849" stroke="#D55C04" stroke-width="0.673333"/>
  <path d="M100.485 107.957C99.3449 109.509 97.113 110.41 93.7284 110.456C90.3728 110.501 86.1018 109.698 81.221 108.105C71.4705 104.922 59.5029 98.6613 47.9752 90.1886C36.4428 81.7124 27.1802 72.5068 21.5178 64.5033C18.6834 60.497 16.7853 56.8397 15.9322 53.7613C15.0751 50.6688 15.3147 48.3374 16.4704 46.765C17.6262 45.1926 19.7797 44.2679 22.9871 44.1627C26.1797 44.058 30.237 44.7777 34.9067 46.2869C44.2356 49.3018 55.7866 55.3941 67.3189 63.8702C78.8555 72.3494 88.5397 81.7269 94.6211 89.9065C97.6656 94.0015 99.7706 97.7478 100.775 100.895C101.787 104.066 101.621 106.413 100.485 107.957Z" stroke="#D55C04" stroke-width="2.02"/>
  <path d="M54.7038 43.8049C55.1833 48.179 55.7396 50.2492 59.2087 52.3193C61.9376 67.6311 49.328 58.0526 44.6245 50.7418L46.8491 41.9518C48.2233 42.2448 51.718 43.0256 54.7038 43.8049Z" fill="#F1B09B"/>
  <path d="M46.8491 41.9516C48.2233 42.2446 51.718 43.0254 54.7039 43.8047C55.0095 46.5924 55.3462 48.4444 56.4483 49.9569C51.3882 50.3673 47.9405 44.7911 46.8491 41.9516Z" fill="#EC8D66"/>
  <path d="M153.246 144.19C150.02 146.293 145.606 139.191 145.606 139.191L138.678 147.199C138.678 147.199 142.023 149.24 144.714 151.685C146.182 153.017 148.51 155.919 149.771 156.449C152.468 157.43 159.253 146.054 153.246 144.19Z" fill="#FDCBB4"/>
  <path d="M138.679 147.2C138.679 147.2 142.023 149.24 144.715 151.685C146.182 153.017 148.51 155.919 149.771 156.449C149.958 156.36 150.146 156.261 150.334 156.151C147.332 155.232 146.46 152.085 145.32 151.341C144.467 150.783 141.242 148.844 142.637 148.188C144.033 147.533 144.836 144.034 147.611 141.816C147.003 141.085 145.799 139.55 145.799 139.55L138.679 147.2Z" fill="#F1A089"/>
  <path d="M162.92 138.73C161.285 140.051 156.647 141.921 152.886 144.379C152.793 146.313 154.54 147.61 154.98 148.633C155.42 149.655 155.635 150.227 152.863 153.514C150.09 156.801 150.076 156.256 149.773 156.474C149.471 156.693 150.479 157.603 150.654 157.395C150.829 157.187 163.102 143.146 164.263 141.699C165.425 140.251 164.282 137.747 162.92 138.73Z" fill="#D55C04"/>
  <path d="M139.94 150.071C142.01 150.071 147.875 137.191 152.475 130.981C126.255 96.71 117.4 84.7497 110.499 84.7497C106.86 86.6031 64.4155 111.295 62.3133 117.755C77.1486 120.401 105.554 103.74 105.209 104.53C114.639 111.66 131.315 142.941 139.94 150.071Z" fill="#0B1F83"/>
  <path d="M62.3136 117.755C77.149 120.401 105.555 103.74 105.21 104.53C111.983 109.652 122.495 127.234 131.077 139.376C129.69 130.084 121.994 101.816 118.32 88.8444C115.163 85.9982 112.729 84.7497 110.5 84.7497C106.86 86.6031 64.4159 111.295 62.3136 117.755Z" fill="#091258"/>
  <path d="M151.244 129.371C146.495 134.776 143.39 144.896 139.94 147.541C127.75 135.006 113.144 106.715 106.359 103.15C102.564 102 91.8688 114.076 63.32 116.146" stroke="#4B4FE2" stroke-width="0.336667"/>
  <path d="M126.212 150.679C122.505 149.635 124.944 141.637 124.944 141.637L114.354 141.697C114.354 141.697 115.021 145.558 114.953 149.193C114.917 151.175 114.266 154.838 114.697 156.136C115.735 158.811 128.764 156.427 126.212 150.679Z" fill="#FDCBB4"/>
  <path d="M114.355 141.697C114.355 141.697 115.021 145.558 114.954 149.193C114.917 151.175 114.266 154.838 114.698 156.136C114.887 156.218 115.086 156.294 115.292 156.363C114.008 153.499 115.801 150.77 115.611 149.422C115.469 148.413 114.804 144.709 116.217 145.327C117.63 145.946 120.792 144.246 124.288 144.875C124.438 143.936 124.801 142.019 124.801 142.019L114.355 141.697Z" fill="#F1A089"/>
  <path d="M136.692 154.363C134.621 154.003 130.159 151.744 125.833 150.531C124.316 151.735 124.49 153.905 124.01 154.909C123.531 155.913 123.242 156.452 118.942 156.529C114.643 156.607 115.044 156.238 114.68 156.154C114.317 156.07 114.296 157.428 114.567 157.423C114.839 157.418 133.487 157.408 135.342 157.329C137.196 157.251 138.328 154.741 136.692 154.363Z" fill="#D55C04"/>
  <path d="M58.7486 118.216C46.3283 118.584 44.7566 105.795 45.5233 98.5501C71.6288 91.0749 110.476 75.3197 114.755 82.6797C117.63 87.6248 132.182 143.928 130.74 144.321C126.945 145.356 120.505 143.516 108.085 144.321C104.635 132.476 104.405 100.39 101.414 102.69C76.5739 116.951 71.1688 117.848 58.7486 118.216Z" fill="#0B1F83"/>
  <path d="M101.414 102.69C100.987 102.935 100.565 103.177 100.149 103.414C101.926 101.182 105.483 95.8083 105.974 91.6309C105.989 91.4813 106.003 91.3342 106.015 91.1899C106.005 91.3353 105.991 91.4823 105.974 91.6309C105.56 95.775 104.046 101.882 102.923 104.99C102.498 103.142 102.011 102.231 101.414 102.69Z" fill="#021575"/>
  <path d="M130.643 142.136C126.025 143.861 113.145 141.101 109.924 142.136C109.004 138.916 106.152 105.716 103.139 100.965C101.415 98.2459 83.9339 116.146 58.748 116.146C51.086 116.146 46.6727 111.167 47.3627 98.016" stroke="#4B4FE2" stroke-width="0.336667"/>
  <path d="M54.0629 47.3375C61.6355 48.7217 61.865 35.9343 60.9851 30.3717C56.8438 22.0374 44.7514 29.0081 44.7821 33.2535C44.8015 35.955 45.8592 45.8379 54.0629 47.3375Z" fill="#F1B09B"/>
  <path d="M60.9854 30.3718C56.8441 22.0375 44.7517 29.0082 44.7823 33.2536C44.7947 34.9719 45.2271 39.5954 47.6511 43.1191C47.977 42.3908 48.6519 40.8191 48.7439 40.3591C48.8589 39.7841 46.2138 36.449 47.9389 34.4939C49.6639 32.5389 49.6639 35.299 49.2039 37.829C49.2039 38.289 51.619 37.714 52.999 34.9539C53.919 32.8839 57.8739 37.829 61.2441 37.829C61.4604 35.0691 61.2889 32.2906 60.9854 30.3718Z" fill="#EC8D66"/>
  <path d="M65.7472 34.4207C67.4853 28.4763 62.9571 26.7553 60.2508 26.6605C59.5971 24.6072 56.7226 22.2066 54.7313 22.2486C50.0245 22.3478 48.2776 25.7258 47.6672 27.2338C41.3131 29.9251 43.9527 36.2173 45.1094 37.9248C45.1823 38.2782 45.9139 41.2836 46.5062 43.2565C47.6355 42.469 47.9819 41.1163 48.2079 40.4249C48.4903 39.5607 47.4473 38.9696 46.9238 36.4291C46.4002 33.8887 48.8724 33.0337 49.8505 33.8685C50.8285 34.7032 48.7012 37.79 49.8057 37.5624C52.8302 36.5937 52.3842 32.1948 55.5393 34.6536C60.0662 38.1813 64.6008 38.3415 65.7472 34.4207Z" fill="#05185A"/>
  <path d="M55.4869 34.6596C60.0138 38.1874 64.6058 38.3414 65.7522 34.4207C66.393 32.2292 66.1821 30.6117 65.5249 29.4381C65.6463 36.4621 59.2046 35.8777 55.4869 34.6596Z" fill="#20315F"/>
  <rect x="75.2917" y="84.6849" width="30.3955" height="3.30346" transform="rotate(-12.9599 75.2917 84.6849)" fill="#F0BC6B"/>
  <path d="M76.0312 87.9035L105.652 81.0867L105.501 80.431L75.937 87.4945L76.0312 87.9035Z" fill="#F0BC6B"/>
  <path d="M115.996 55.5893C116.176 55.6563 116.263 55.86 116.188 56.0366L105.502 81.1292L103.6 78.195L113.108 54.8607C113.176 54.6922 113.366 54.6087 113.537 54.6723L115.996 55.5893Z" fill="#F0BC6B"/>
  <path d="M105.502 81.1292L116.188 56.0366C116.263 55.86 116.176 55.6563 115.996 55.5893L115.597 55.4406L104.786 80.8625L105.502 81.1292Z" fill="#F0BC6B"/>
  <path d="M94.2357 74.6438C95.2991 75.2569 98.2483 77.9122 99.59 79.1633C99.1705 79.3559 97.7252 79.3637 95.3001 77.8543C92.2687 75.9675 90.5703 76.8711 89.4069 78.3196C91.9145 76.8003 93.9709 77.0879 93.9224 78.035C93.8836 78.7927 87.1981 81.3225 83.8603 82.1476L83.4093 77.3208C83.8828 77.345 84.703 77.3208 85.4377 76.9779C91.0458 74.3605 92.9064 73.8775 94.2357 74.6438Z" fill="#F1B09B"/>
  <path d="M83.4094 77.3209C83.883 77.3451 84.7031 77.3209 85.4378 76.978C85.4734 77.5973 85.5675 78.8688 85.6595 78.9997C85.7745 79.1634 88.4195 78.9502 89.6845 80.24C87.6894 81.0115 85.4128 81.764 83.8604 82.1477L83.4094 77.3209Z" fill="#EC8D66"/>
  <path d="M85.8898 82.5648L84.5093 76.3545C84.5093 76.3545 76.9193 73.9396 74.6134 73.3644C72.3076 72.7891 69.099 57.7241 59.6688 52.549C62.6583 58.9888 72.0834 82.115 72.0834 82.115L85.8898 82.5648Z" fill="#0D9FD7"/>
  <path d="M84.5094 76.3546L85.8898 82.5648" stroke="white" stroke-width="0.336667"/>
  <path d="M40.0033 56.3442C40.1873 55.5162 43.1467 52.0125 44.7184 50.4791C58.8637 61.4044 59.3237 53.0092 58.9787 52.2041C63.8088 53.4692 70.479 67.7295 77.4941 88.43C65.8789 92.1101 50.1235 99.1252 45.4084 99.1252C43.5684 90.96 37.6902 66.7529 40.0033 56.3442Z" fill="#12AAE4"/>
  <path d="M45.4083 99.1252C50.1234 99.1252 65.8788 92.1101 77.494 88.43" stroke="white" stroke-width="0.336667"/>
  <path d="M44.7183 50.4791C58.8636 61.4043 59.3236 53.0092 58.9786 52.2041" stroke="white" stroke-width="0.336667"/>
  <path d="M64.4726 57.7243C68.375 63.888 72.8593 74.7534 77.4941 88.43C77.1902 88.5263 76.8834 88.6249 76.5741 88.7256C73.3746 76.9298 64.4726 57.7243 64.4726 57.7243Z" fill="#0E8CC1"/>
  <path d="M52.0786 61.8644C47.5705 53.7683 42.15 54.811 40.0033 56.3443C39.0176 60.78 39.5194 67.7216 40.5624 74.8597C41.0066 74.2847 43.6834 89.2121 50.6985 90.6151C58.0587 92.0871 71.629 89.7718 77.4941 88.4301C76.3113 84.9398 75.1383 81.6325 73.9823 78.5398C74.3891 80.6098 58.3807 76.3088 57.8287 75.2048C57.1387 73.8247 56.4487 69.5696 52.0786 61.8644Z" fill="#0E8CC1"/>
  <path d="M84.9587 79.6568C84.5381 79.819 81.5889 80.4386 80.1669 81.1882C79.5976 81.4883 78.5487 81.2333 78.5181 81.2197L77.8249 86.4693C78.1384 86.4993 78.9473 86.6401 79.6758 86.9632C85.5935 88.6068 87.2304 86.3908 92.0024 84.4754C96.7744 82.5601 95.9335 80.7707 91.5455 82.3115C87.1575 83.8524 84.8194 82.428 85.2644 82.4074C85.7093 82.3868 87.9591 81.76 90.4891 81.0699C88.7789 79.7667 86.182 79.1097 84.9587 79.6568Z" fill="#F1B09B"/>
  <path d="M79.6756 86.963C85.5933 88.6067 87.2302 86.3906 92.0022 84.4753C94.5741 83.443 95.5156 82.4473 95.1501 81.9898C92.911 84.0598 92.559 83.83 92.0022 84.175C85.544 87.9701 81.4039 87.7401 79.2187 86.0149L79.6756 81.3212C79.1383 81.3761 78.5409 81.2297 78.5179 81.2195L77.8247 86.4691C78.1381 86.4992 78.9471 86.64 79.6756 86.963Z" fill="#EC8D66"/>
  <path d="M51.7316 63.0711C49.0616 56.9223 45.4981 53.623 40.9213 55.6571C33.6762 58.8772 44.2697 89.7557 51.6166 90.0967C57.8287 90.3851 71.3222 89.5801 78.184 87.51C78.4141 85.67 78.8741 83.1399 78.8741 79.9198C73.009 79.9198 57.0217 77.4464 56.2167 75.7214C54.7216 72.5178 55.5268 71.8113 51.7316 63.0711Z" fill="#12AAE4"/>
  <path d="M78.8741 79.9197C78.8741 83.1398 78.4141 85.6699 78.184 87.5099" stroke="white" stroke-width="0.336667"/>
  <path d="M43.1506 108.789C46.882 111.963 58.469 118.252 74.9656 118.014C67.8956 120.692 47.5694 121.882 43.1506 108.789Z" fill="#D55C04"/>
  <path d="M89.5959 109.882C84.6353 112.664 73.2552 118.407 67.4192 119.123" stroke="#D55C04" stroke-width="0.673333"/>
  <path d="M81.6416 108.491C77.182 111.987 68.5068 118.643 65.0167 119.123" stroke="#D55C04" stroke-width="0.673333"/>
  <path d="M75.1807 105.447C73.3314 109.073 67.8225 116.737 60.5811 118.383" stroke="#D55C04" stroke-width="0.673333"/>
  <path d="M72.0394 103.969C68.9913 107.921 61.6562 116.301 56.7006 118.199" stroke="#D55C04" stroke-width="0.673333"/>
  <path d="M66.8647 101.751C64.4736 106.46 58.9453 116.231 55.9612 117.644" stroke="#D55C04" stroke-width="0.673333"/>
  <path d="M60.9507 98.6093C58.9107 104.385 54.5394 116.166 53.3737 117.09" stroke="#D55C04" stroke-width="0.673333"/>
  <path d="M56.0549 95.8659C54.7925 101.896 52.4166 113.822 52.6496 117.09" stroke="#D55C04" stroke-width="0.673333"/>
  <path d="M50.0477 91.2169C49.6293 96.8889 50.8492 108.726 50.8491 114.155" stroke="#D55C04" stroke-width="0.673333"/>
  <path d="M44.318 87.336C45.6193 92.8041 47.5218 101.773 49.3698 114.34" stroke="#D55C04" stroke-width="0.673333"/>
  <path d="M93.6612 110.622C87.809 113.271 77.5405 118.137 71.4542 118.591" stroke="#D55C04" stroke-width="0.673333"/>
  <path d="M38.7745 83.0854C41.14 88.5916 45.9516 102.143 47.7997 113.508" stroke="#D55C04" stroke-width="0.673333"/>
  <path d="M27.5007 72.1821C32.3474 80.9899 41.5787 100.052 45.7662 112.03" stroke="#D55C04" stroke-width="0.673333"/>
  <path d="M15.1647 49.8205C13.9884 61.2576 34.6222 92.3694 44.2883 110.551" stroke="#D55C04" stroke-width="0.673333"/>
  <path d="M99.7376 108.743C92.4924 114.379 68.9296 105.836 47.8068 90.3109C24.6161 73.266 10.9915 53.2141 16.3282 46.5442C20.0084 41.9442 31.2374 43.7849 44.6926 49.995" stroke="#D55C04" stroke-width="2.02"/>
  <path d="M73.4164 143.332L30.6437 123.188L93.8472 134.741L73.4164 143.332Z" stroke="#20315F" stroke-width="1.17833"/>
  <path d="M37.8755 99.8218L38.7165 101.168L39.5582 102.683L19.8306 156.06C19.4784 157.013 18.3884 157.464 17.4663 157.037V157.037C16.6326 156.651 16.242 155.684 16.5737 154.828L37.8755 99.8218Z" fill="#20315F"/>
  <path d="M83.9984 115.224L86.9914 113.964L105.584 154.892C106.009 155.828 105.539 156.926 104.569 157.265V157.265C103.712 157.565 102.768 157.158 102.397 156.329L83.9984 115.224Z" fill="#20315F"/>
  <path d="M69.8583 119.264L71.6257 118.927L73.3088 118.675L76.1905 155.493C76.2706 156.517 75.4614 157.392 74.4345 157.392V157.392C73.5144 157.392 72.7494 156.684 72.6785 155.766L69.8583 119.264Z" fill="#20315F"/>
  <circle cx="98.3911" cy="16.0762" r="14.8025" fill="#CDEBF7"/>
  <circle cx="98.3909" cy="16.0759" r="15.9917" stroke="#1A9CDD" stroke-width="0.168333"/>
  <path d="M98.3906 15.9168V8.59515" stroke="#1A9CDD" stroke-width="0.505" stroke-linecap="round"/>
  <path d="M98.1522 2.54675V4.61591" stroke="#1A9CDD" stroke-width="0.336667"/>
  <path d="M84.8618 15.8371L86.931 15.8371" stroke="#1A9CDD" stroke-width="0.336667"/>
  <path d="M98.1522 27.0585V29.1277" stroke="#1A9CDD" stroke-width="0.336667"/>
  <path d="M109.373 15.8371L111.442 15.8371" stroke="#1A9CDD" stroke-width="0.336667"/>
  <path d="M107.781 15.9167H98.5496" stroke="#1A9CDD" stroke-width="0.505" stroke-linecap="round"/>
  <circle cx="98.3904" cy="16.076" r="1.75083" fill="#1A9CDD"/>
  <rect x="143.41" y="10.3725" width="48.1368" height="36.9442" fill="#CDEBF7" stroke="#1A9CDD" stroke-width="0.168333"/>
  <rect x="141.567" y="8.95659" width="51.8226" height="39.7759" stroke="#3E4D9B" stroke-width="0.168333"/>
  <path d="M191.631 10.2883H185.951L143.326 47.4008L191.631 10.2883Z" fill="white"/>
  <path d="M143.326 26.8385L163.508 10.2883H174.917L143.326 38.6242V26.8385Z" fill="white"/>
  <path d="M152.86 93.8845C156.924 94.9783 156.732 97.1316 155.916 98.2735H155.737C157.283 95.276 154.191 94.7084 152.86 94.3483C151.314 93.9299 149.983 92.6585 153.256 91.8148C158.492 90.4647 156.636 88.4353 152.788 87.3187C149.731 86.4315 144.062 86.3434 141.568 86.391C142.383 86.1888 145.236 86.0564 149.659 86.391C157.679 86.9976 159.009 90.6016 155.557 91.5294C151.781 92.5441 150.738 93.3135 152.86 93.8845Z" fill="#CDEBF7"/>
  <path d="M158.744 98.1013C158.744 97.9153 158.594 97.7646 158.408 97.7646H150.684C150.498 97.7646 150.347 97.9153 150.347 98.1013V106.387C150.347 107.316 151.101 108.07 152.031 108.07H157.061C157.991 108.07 158.744 107.316 158.744 106.387V98.1013Z" fill="#D55C04"/>
  <path d="M157.061 108.07H150.347C153.019 108.028 158.439 105.907 158.744 97.7646V106.387C158.744 107.316 157.991 108.07 157.061 108.07Z" fill="#D22F3F"/>
  <path d="M150.602 99.8002C149.306 99.9969 148.311 101.147 148.311 102.536C148.311 103.925 149.306 105.074 150.602 105.271" stroke="#D55C04" stroke-width="0.505"/>
  <path d="M176.516 86.1334C175.787 89.4602 176.82 96.1726 177.428 99.113H178.946C180.009 94.9545 178.642 89.5359 178.642 87.1416C178.642 85.2261 177.63 82.143 177.123 80.8408C177.225 81.2189 177.245 82.8067 176.516 86.1334Z" fill="#1889D1"/>
  <path d="M177.58 98.9866C176.01 96.8443 173.084 91.3249 173.935 86.3851C174.618 82.4182 174.759 80.7322 174.735 80.1784C174.721 80.1013 174.707 80.0278 174.694 79.9583C174.714 79.9749 174.729 80.0426 174.735 80.1784C175.049 81.8731 175.605 85.3387 175.605 87.2672C175.605 89.7875 178.339 94.072 179.098 98.9866H177.58Z" fill="#1AA0D5"/>
  <path d="M173.175 92.3077C175.362 94.2232 176.719 97.5584 177.124 98.9865H178.491C178.794 97.0963 176.82 92.8118 174.694 91.2996C172.993 90.0899 171.15 86.9311 170.441 85.5029C170.441 86.9731 170.988 90.3923 173.175 92.3077Z" fill="#1889D1"/>
  <path d="M173.023 94.9545C174.481 96.0634 175.453 98.1048 175.756 98.9869H177.123C176.971 97.6008 175.301 94.3244 173.782 93.5683C172.567 92.9634 171.251 91.216 170.744 90.4179C170.896 91.4681 171.565 93.8455 173.023 94.9545Z" fill="#1AA0D5"/>
  <path d="M178.035 90.1663C176.334 92.5858 177.023 96.9711 177.58 98.8613H178.794C178.794 97.6012 179.098 94.2996 180.313 91.1744C181.832 87.2679 181.68 83.8655 181.376 81.0932C181.528 82.3534 180.162 87.1419 178.035 90.1663Z" fill="#1AA0D5"/>
  <path d="M180.009 92.6855C178.308 94.5001 178.187 97.306 178.338 98.4821H178.945C179.249 97.222 181.224 94.4497 182.59 92.4334C183.957 90.4172 183.805 86.5107 183.805 83.9904C183.805 86.0067 182.135 90.4172 180.009 92.6855Z" fill="#1889D1"/>
  <path d="M183.502 93.6938C181.922 94.9035 180.414 97.4742 179.857 98.6084H178.49C178.338 98.2303 180.768 93.9458 182.287 92.6857C183.806 91.4255 185.324 88.1491 185.932 86.3849C186.236 87.7711 185.805 91.9296 183.502 93.6938Z" fill="#1AA0D5"/>
  <path d="M184.862 97.4516H170.185L173.05 108.027H182.295L184.862 97.4516Z" fill="#F0BC6B"/>
  <path d="M171.949 99.3278L171.662 97.4426H183.514L183.252 99.3278M171.949 99.3278H183.252M171.949 99.3278L172.236 101.213M183.252 99.3278L182.99 101.213M172.236 101.213H182.99M172.236 101.213L172.523 103.098M182.99 101.213L182.727 103.098M172.523 103.098H182.727M172.523 103.098L172.749 104.579M182.727 103.098L182.521 104.579M172.749 104.579H182.521M172.749 104.579L173.015 106.33M182.521 104.579L182.278 106.33M173.015 106.33L173.282 107.854H182.035L182.278 106.33M173.015 106.33H182.278" stroke="#F0BC6B" stroke-width="0.168333"/>
  <path d="M0 157.392H217.823" stroke="#20315F" stroke-width="0.168333"/>
</svg>
